HIERARCHY
ROOT Hips
{
	OFFSET 0.00000 0.00000 0.00000
	CHANNELS 6 Xposition Yposition Zposition Zrotation Yrotation Xrotation 
	JOINT LHipJoint
	{
		OFFSET 0 0 0
		CHANNELS 3 Zrotation Yrotation Xrotation
		JOINT LeftHip
		{
			OFFSET 1.53139 -1.83434 0.76626
			CHANNELS 3 Zrotation Yrotation Xrotation
			JOINT LeftKnee
			{
				OFFSET 2.56112 -7.03663 0.00000
				CHANNELS 3 Zrotation Yrotation Xrotation
				JOINT LeftAnkle
				{
					OFFSET 2.59983 -7.14299 0.00000
					CHANNELS 3 Zrotation Yrotation Xrotation
					JOINT LeftToe
					{
						OFFSET 0.13742 -0.37757 2.00054
						CHANNELS 3 Zrotation Yrotation Xrotation
						End Site
						{
							OFFSET 0.00000 -0.00000 1.02897
						}
					}
				}
			}
		}
	}
	JOINT RHipJoint
	{
		OFFSET 0 0 0
		CHANNELS 3 Zrotation Yrotation Xrotation
		JOINT RightHip
		{
			OFFSET -1.40122 -1.83435 0.76627
			CHANNELS 3 Zrotation Yrotation Xrotation
			JOINT RightKnee
			{
				OFFSET -2.54052 -6.98003 0.00000
				CHANNELS 3 Zrotation Yrotation Xrotation
				JOINT RightAnkle
				{
					OFFSET -2.63179 -7.23079 0.00000
					CHANNELS 3 Zrotation Yrotation Xrotation
					JOINT RightToe
					{
						OFFSET -0.24131 -0.66299 2.03908
						CHANNELS 3 Zrotation Yrotation Xrotation
						End Site
						{
							OFFSET -0.00000 -0.00000 1.07391
						}
					}
				}
			}
		}
	}
	JOINT lowerback
	{
		OFFSET 0 0 0
		CHANNELS 3 Zrotation Yrotation Xrotation
		JOINT Chest
		{
			OFFSET 0.01174 2.10302 -0.29778
			CHANNELS 3 Zrotation Yrotation Xrotation
			JOINT Chest2
			{
				OFFSET 0.00772 2.13227 -0.01247
				CHANNELS 3 Zrotation Yrotation Xrotation
				JOINT lowerneck
				{
					OFFSET 0 0 0
					CHANNELS 3 Zrotation Yrotation Xrotation
					JOINT Neck
					{
						OFFSET -0.09219 1.60848 0.31481
						CHANNELS 3 Zrotation Yrotation Xrotation
						JOINT Head
						{
							OFFSET 0.13974 1.65456 -0.31134
							CHANNELS 3 Zrotation Yrotation Xrotation
							End Site
							{
								OFFSET 0.04742 1.69515 -0.14578
							}
						}
					}
				}
				JOINT LeftCollar
				{
					OFFSET 0 0 0
					CHANNELS 3 Zrotation Yrotation Xrotation
					JOINT LeftShoulder
					{
						OFFSET 3.24909 1.02882 -0.23993
CHANNELS 3 Zrotation Xrotation Yrotation
						JOINT LeftElbow
						{
OFFSET 0 -5.329550 -0.000000
CHANNELS 3 Zrotation Xrotation Yrotation
							JOINT LeftWrist
							{
OFFSET 0 -3.692320 -0.000000
CHANNELS 3 Zrotation Xrotation Yrotation
								JOINT lhand
								{
									OFFSET 0 0 0
CHANNELS 3 Zrotation Xrotation Yrotation
									JOINT LFingers
									{
OFFSET 0 -0.536600 -0.000000
CHANNELS 3 Zrotation Xrotation Yrotation
										End Site
										{
OFFSET 0 -0.432620 -0.000000
										}
									}
								}
								JOINT LThumb
								{
OFFSET 0 0.000000 0.000000
CHANNELS 3 Zrotation Xrotation Yrotation
									End Site
									{
OFFSET 0 -0.439220 0.439220
									}
								}
							}
						}
					}
				}
				JOINT RightCollar
				{
					OFFSET 0 0 0
					CHANNELS 3 Zrotation Yrotation Xrotation
					JOINT RightShoulder
					{
						OFFSET -3.21387 0.93002 -0.34594
CHANNELS 3 Zrotation Xrotation Yrotation
						JOINT RightElbow
						{
OFFSET 0 -5.234310 0.000000
CHANNELS 3 Zrotation Xrotation Yrotation
							JOINT RightWrist
							{
OFFSET 0 -3.553010 -0.000000
CHANNELS 3 Zrotation Xrotation Yrotation
								JOINT rhand
								{
									OFFSET 0 0 0
CHANNELS 3 Zrotation Xrotation Yrotation
									JOINT RFingers
									{
OFFSET 0 -0.772520 -0.000000
CHANNELS 3 Zrotation Xrotation Yrotation
										End Site
										{
OFFSET 0 -0.622830 -0.000000
										}
									}
								}
								JOINT RThumb
								{
OFFSET 0 0.000000 0.000000
CHANNELS 3 Zrotation Xrotation Yrotation
									End Site
									{
OFFSET 0 -0.632340 0.632340
									}
								}
							}
						}
					}
				}
			}
		}
	}
}
MOTION
Frames: 7
Frame Time: 0.008333333333333333
15.773900 17.890700 -10.317400 1.281700 -16.934700 1.999600 0.000000 0.000000 0.000000 -20.534400 -7.595700 -4.458900 1.609300 7.999900 22.713800 0.491400 -7.334700 -12.733900 0.119800 -2.231200 -6.145000 0.000000 0.000000 0.000000 25.111800 3.627800 -8.484900 -2.523800 -9.881100 28.592700 -1.053100 0.451600 -19.257100 -0.183500 -2.759000 7.608500 -0.039200 -0.631900 6.048300 0.743600 -0.815800 -0.665100 0.867400 -0.395800 -4.068700 -12.329000 -7.649300 -16.053200 7.297800 -9.523300 24.704600 3.286000 -4.630900 11.705600 0.000000 0.000000 0.000000 1.108100 2.614500 -30.005800 15.846400 -25.312000 3.580000 13.593400 13.488500 -29.326600 0.000000 0.000000 0.000000 -7.125000 0.000000 0.000000 -19.665700 58.911000 6.852900 0.000000 0.000000 0.000000 -1.049000 2.391700 20.858900 -14.963200 -24.094800 -3.210900 -16.966400 6.157700 -6.988100 0.000000 0.000000 0.000000 7.125000 0.000000 -0.000000 7.185800 22.693300 3.887000
15.714074 17.878691 -10.326729 1.509184 -16.624846 1.865264 0.000000 0.000000 0.000000 -20.427447 -7.628135 -4.722426 1.700407 8.211829 23.359427 0.476999 -7.918380 -12.681366 0.150670 -2.500883 -6.892233 0.000000 0.000000 0.000000 25.054384 3.173300 -8.645051 -2.564720 -9.954592 28.829872 -1.016658 0.090830 -19.035547 -0.000739 -0.171136 0.470292 -0.356223 -0.635785 6.151434 0.730666 -0.844639 -0.724818 1.036975 -0.402402 -4.184011 -12.032321 -6.486699 -16.753021 7.031544 -7.981434 27.770266 3.433336 -3.962765 12.847758 0.000000 0.000000 0.000000 0.945507 2.702152 -29.415260 15.343353 -24.622188 3.367723 17.098524 16.801078 -24.965099 0.000000 0.000000 0.000000 -7.125000 0.000000 0.000000 -13.411442 55.445191 3.484082 0.000000 0.000000 0.000000 -1.095751 2.612205 21.564702 -15.290548 -24.549208 -3.345798 -16.087507 4.997899 -7.599239 0.000000 0.000000 0.000000 7.125000 0.000000 0.000000 7.809391 22.099516 4.336939
15.650595 17.869696 -10.366850 1.214125 -15.066969 1.700326 0.000000 0.000000 0.000000 -19.572810 -7.784511 -7.133994 2.320363 9.502770 27.381895 0.382562 -9.532764 -12.026392 0.188342 -2.792134 -7.700792 0.000000 0.000000 0.000000 25.791415 2.678712 -8.345646 -2.483394 -9.807684 28.356126 -0.988296 -0.950914 -19.151939 -0.011140 -0.679442 1.867096 -0.070708 -0.849798 6.962733 0.889461 -1.099412 -0.576637 1.078777 -0.532411 -4.484990 -11.383509 -5.733170 -17.620344 6.064894 -6.829831 30.549768 3.184236 -3.532606 13.995212 0.000000 0.000000 0.000000 0.917934 2.545295 -29.565758 15.896421 -25.379950 3.601475 15.836197 16.097837 -25.843085 0.000000 0.000000 0.000000 -7.125000 0.000000 0.000000 -15.161572 56.054414 4.179323 0.000000 0.000000 0.000000 -1.117575 2.518720 21.056459 -15.495227 -24.831501 -3.431228 -16.333084 4.683277 -9.109235 0.000000 0.000000 0.000000 7.125000 0.000000 0.000000 7.596557 20.532321 4.488482
15.587594 17.871636 -10.383900 0.177700 -12.923494 1.428418 0.000000 0.000000 0.000000 -17.944025 -7.542838 -12.522553 3.957903 12.103273 36.099566 0.281967 -9.520098 -10.805931 0.329645 -3.683284 -10.187962 0.000000 0.000000 0.000000 27.298365 1.368516 -7.183970 -2.188690 -9.248450 26.575629 -0.915718 -2.006877 -18.906785 -0.041284 -1.311381 3.606024 1.120811 -1.086401 8.060811 1.250851 -1.280049 -0.333644 0.824472 -0.645796 -4.866121 -11.436061 -5.377669 -17.100630 5.805951 -6.324397 31.770588 3.215423 -3.384687 14.355986 0.000000 0.000000 0.000000 0.401823 1.638395 -28.361012 16.198870 -25.789623 3.732095 14.741598 15.594965 -27.943205 0.000000 0.000000 0.000000 -7.125000 0.000000 0.000000 -17.532953 57.853463 5.629988 0.000000 0.000000 0.000000 -1.476268 3.110081 21.267719 -15.848085 -25.314163 -3.580744 -15.878841 5.012472 -8.518298 0.000000 0.000000 0.000000 7.125000 0.000000 0.000000 7.935372 21.163778 4.578502
15.522521 17.906641 -10.341764 -0.208920 -12.422719 1.516927 0.000000 0.000000 0.000000 -17.320970 -7.600210 -18.077694 5.096289 13.491454 41.237152 0.372824 -7.627594 -11.349308 0.268530 -3.331449 -9.203164 0.000000 0.000000 0.000000 27.945565 0.490618 -6.257044 -1.890305 -8.633760 24.656161 -0.828451 -2.343930 -18.194144 -0.070004 -1.700792 4.679728 1.637903 -0.522670 8.921655 1.337876 -0.456051 -0.167081 0.532172 -0.251204 -5.184634 -11.560953 -5.611462 -16.675137 5.873675 -6.717111 32.154709 3.209212 -3.568118 14.490057 0.000000 0.000000 0.000000 -0.251391 1.703424 -26.302839 17.181717 -27.096738 4.169785 18.244187 15.126719 -23.612622 0.000000 0.000000 0.000000 -7.125000 0.000000 0.000000 -11.608523 54.320616 2.686411 0.000000 0.000000 0.000000 -1.634183 3.316941 20.486831 -15.235449 -24.473056 -3.322908 -15.878356 5.719126 -8.444558 0.000000 0.000000 0.000000 7.125000 0.000000 0.000000 7.937556 21.239557 4.566025
15.447799 17.915639 -10.215217 0.170386 -12.417397 1.539752 0.000000 0.000000 0.000000 -17.717328 -8.156607 -21.438038 4.421707 12.700775 38.259315 0.391685 -5.064424 -11.171846 0.730875 -5.460545 -15.227360 0.000000 0.000000 0.000000 27.852407 0.611176 -5.203281 -1.727209 -8.273160 23.546903 -0.840476 -2.699078 -18.495464 -0.319886 -3.635389 10.053273 1.882741 -0.011100 9.379890 0.898485 0.233147 0.162899 -0.155456 0.078648 -5.091458 -11.484136 -5.755418 -16.510639 6.070441 -7.021548 31.998204 3.222579 -3.657980 14.422461 0.000000 0.000000 0.000000 0.668617 2.261938 -25.726566 17.821099 -27.927481 4.465186 19.245575 14.505742 -21.089373 0.000000 0.000000 0.000000 -7.125000 0.000000 0.000000 -9.601111 51.947011 1.659785 0.000000 0.000000 0.000000 -1.069473 3.150269 19.595114 -14.444875 -23.367126 -3.002330 -16.011641 7.055710 -7.893101 0.000000 0.000000 0.000000 7.125000 0.000000 0.000000 7.855915 21.800481 4.417344
15.351585 17.927091 -10.003611 0.084281 -12.203646 1.657566 0.000000 0.000000 0.000000 -17.443317 -9.289887 -23.407985 2.897008 10.524908 30.695210 0.272298 -4.716242 -9.356068 0.830955 -5.799913 -16.209471 0.000000 0.000000 0.000000 28.204578 0.074443 -3.605221 -1.481115 -7.689162 21.773975 -0.823336 -2.895472 -18.423649 -0.381923 -3.968670 10.988523 2.483687 0.162537 9.913889 0.782324 0.532855 0.483320 -0.657720 0.212681 -5.044498 -11.526711 -5.719750 -16.443837 6.113627 -6.943363 31.655624 3.256573 -3.615303 14.248836 0.000000 0.000000 0.000000 1.028485 2.393909 -24.134775 17.139975 -27.041737 4.150891 16.963811 14.664803 -26.004307 0.000000 0.000000 0.000000 -7.125000 0.000000 0.000000 -14.110877 56.438171 4.032781 0.000000 0.000000 0.000000 -1.018103 3.331477 20.209749 -14.557119 -23.525602 -3.046948 -15.862021 6.840788 -7.936752 0.000000 0.000000 0.000000 7.125000 0.000000 0.000000 7.963085 21.762308 4.485721
